<svg id="svg" version="1.1" viewBox="0 0 300 300" width="300" height="300" xmlns="http://www.w3.org/2000/svg"><svg xmlns="http://www.w3.org/2000/svg"><defs><clipPath id="clip-1"><rect x="0" y="0" transform="scale(0.14648,0.14648)" width="2048" height="2048" fill="none"/></clipPath><linearGradient x1="120.01802" y1="249.28125" x2="123.30293" y2="141.40854" gradientUnits="userSpaceOnUse" id="color-1"><stop offset="0" stop-color="#002c33"/><stop offset="1" stop-color="#47ae5d"/></linearGradient><linearGradient x1="207.53467" y1="248.74512" x2="204.07471" y2="144.04307" gradientUnits="userSpaceOnUse" id="color-2"><stop offset="0" stop-color="#002c33"/><stop offset="1" stop-color="#45ac5d"/></linearGradient><linearGradient x1="155.41992" y1="34.64604" x2="164.51367" y2="158.38916" gradientUnits="userSpaceOnUse" id="color-3"><stop offset="0" stop-color="#96cc3d"/><stop offset="1" stop-color="#52a953"/></linearGradient></defs><g clip-path="url(#clip-1)" fill="none" fill-rule="nonzero" stroke="none" stroke-width="1" stroke-linecap="butt" stroke-linejoin="miter" stroke-miterlimit="10" stroke-dasharray="" stroke-dashoffset="0" font-family="none" font-weight="none" font-size="none" text-anchor="none" style="mix-blend-mode: normal"><path d="M87.28843,140.81279c0.62944,-0.65508 3.65068,-2.26157 4.59463,-2.74614c8.85952,-4.62598 18.6564,-7.17275 28.64707,-7.44727c12.9668,-0.25327 25.12075,2.45391 36.20229,9.31685c1.48389,0.91934 5.27637,3.37148 6.33838,4.63257c0.89355,0.62827 2.29395,1.93755 3.12158,2.74175c6.00439,5.8374 10.71973,13.38135 12.8335,21.51123c0.28418,1.09277 0.17578,5.59131 0.17432,7.04297l-0.01611,13.3125l0.07764,59.50781c-4.58936,-0.12305 -9.42773,-0.04248 -14.04785,-0.04248l-24.84272,0.00586c-0.11133,-3.92139 -1.61499,-7.87207 -4.01602,-10.96143c-3.12524,-3.97559 -7.70728,-6.54053 -12.73008,-7.125c-6.8231,-0.84668 -13.88687,2.37451 -17.73076,8.05664c-2.04243,3.01904 -2.88413,5.79785 -3.29897,9.37354l-39.41689,-0.00586c-0.26938,-6.04102 0.62095,-12.07617 2.6231,-17.78174c9.48179,-27.25049 41.22437,-45.21387 69.4689,-37.67871c1.80747,0.48193 3.53745,1.09131 5.30229,1.70947c-0.15146,-5.66748 -1.36582,-10.4209 -4.74595,-15.03076c-6.01245,-8.2002 -16.97607,-9.90234 -24.98042,-3.52441c-3.78926,3.01904 -7.14053,7.94824 -7.76968,12.83203c-1.67563,0.11279 -4.15137,0.04248 -5.87153,0.04395l-10.43247,0.00146c-7.65688,0.00146 -16.15283,0.18604 -23.75171,-0.04395c-0.15923,-2.63232 0.08071,-5.6748 0.18296,-8.33057c0.53525,-13.9043 7.9043,-26.88428 18.64673,-35.51323c1.69673,-1.36289 3.5335,-2.80605 5.43779,-3.85708z" fill="url(#color-1)"/><path d="M87.28843,140.81279c0.62944,-0.65508 3.65068,-2.26157 4.59463,-2.74614c8.85952,-4.62598 18.6564,-7.17275 28.64707,-7.44727c12.9668,-0.25327 25.12075,2.45391 36.20229,9.31685c1.48389,0.91934 5.27637,3.37148 6.33838,4.63257l-0.27539,0.05024c-0.65479,-0.42671 -2.24268,-2.03159 -2.76709,-1.96421l0.21094,0.34028c0.67529,0.33501 1.2583,0.68247 0.89502,1.50923c-0.67529,0.31655 -0.9126,-0.27671 -1.74902,-0.34336c-0.15967,-0.1125 -0.63281,0.42539 -0.70166,0.41763c-1.9248,-0.21841 -3.85547,-0.27275 -5.78906,-0.17681c-0.07178,0.00352 -1.0957,-0.65801 -1.15869,-0.65815c-2.45801,-0.00161 -4.9248,-0.01904 -7.38105,0.09067l-0.43154,-0.41323c-2.74307,0.21108 -6.05361,-0.06255 -8.85527,0.03765c-0.89619,0.03208 -2.23125,-0.43066 -3.33999,-0.39741c-2.72681,0.08174 -5.48569,-0.24814 -8.21733,-0.15396c-1.29683,-0.12422 -3.27803,0.31802 -4.49604,0.11997c-6.87847,-1.11841 -13.79897,-0.32241 -20.72358,-0.42466c-0.61816,0.06211 -1.30342,-0.21504 -1.89009,-0.47124c-0.70825,-0.51533 -2.02529,-0.09507 -2.64434,-0.25796c-1.29507,-0.34087 -4.74097,0.33516 -5.62998,0.15557c-0.26265,-0.36929 -0.21812,-0.5061 -0.24302,-0.96592l0.31421,-0.26631l-0.10386,-0.14707c-0.33281,0.12129 -0.4522,0.15205 -0.80552,0.16304z" fill="#61af4e"/><path d="M185.72754,151.95557c-0.14355,-1.91162 -0.00732,-3.96973 -0.0791,-5.88721c-0.0835,-2.26436 0.11133,-3.79629 1.53223,-5.63877c2.82568,-3.6646 6.25928,-3.23936 10.31543,-3.24155l9.71338,0.00264l8.18555,-0.01348c1.16455,-0.00161 3.73096,-0.15469 4.78418,0.09141c3.36328,0.78472 5.50342,4.63008 5.80078,7.60049c0.30029,1.13174 0.18604,6.84917 0.18604,8.30083l-0.00879,17.38037l0.01172,77.92236l-40.52344,-0.01318c0.24609,-7.95264 0.04248,-16.91895 0.04248,-24.93164l0.01318,-46.11914l-0.01465,-17.57812c-0.00146,-1.34473 -0.10693,-6.75879 0.04102,-7.875z" fill="url(#color-2)"/><path d="M185.72754,151.95557c-0.14355,-1.91162 -0.00732,-3.96973 -0.0791,-5.88721c-0.0835,-2.26436 0.11133,-3.79629 1.53223,-5.63877c2.82568,-3.6646 6.25928,-3.23936 10.31543,-3.24155l9.71338,0.00264l8.18555,-0.01348c1.16455,-0.00161 3.73096,-0.15469 4.78418,0.09141c3.36328,0.78472 5.50342,4.63008 5.80078,7.60049l-0.22998,-0.14575l-0.22559,-1.05967c-0.84961,0.00879 -2.05518,0.55122 -2.58252,0.52017c-4.00488,-0.23525 -7.97021,0.30322 -11.98975,0.18032c-0.93604,-0.02871 -1.87793,0.65859 -3.0835,0.57114l-0.25488,-0.01714c-4.55273,-0.33691 -4.4209,-1.53179 -9.375,0.15894c-1.68604,0.57554 -8.74805,-0.70283 -10.86182,0.67837c-0.50391,0.1938 -0.38232,0.43389 -1.02686,0.42847l-0.18896,-0.11133l-0.22852,0.0208c-0.16846,1.40757 0.12305,4.95835 -0.20508,5.86216z" fill="#61af4e"/><path d="M148.78271,35.08345l17.69092,0.00586c1.7666,-0.00454 7.40625,-0.12349 8.89893,0.16772c0.81299,0.15205 1.56299,0.54155 2.15332,1.11929c1.97754,1.96772 1.7915,9.63091 1.80029,12.42246c0.01318,3.38862 -0.02051,6.95815 -0.02197,10.3623l0.00146,28.85127l0.00146,45.18472c-0.00146,8.24707 0.11426,16.81758 -0.0498,25.04414c-1.02393,-1.80176 -1.88818,-3.27979 -3.01172,-5.02734c-9.04687,-13.31982 -21.57715,-21.03252 -37.04707,-24.83276l-0.01348,-59.32251l-0.0022,-18.81504c-0.00161,-3.18809 -0.07163,-6.38247 0.05332,-9.56689c0.21563,-5.49492 5.4394,-5.49302 9.54653,-5.59321z" fill="url(#color-3)"/><path d="M189.01758,91.60386c2.58984,0.01143 5.51953,-0.14238 8.0874,0.04102c1.17334,0.08379 1.68896,0.60806 2.33643,1.50088c0.28564,1.44888 0.19336,4.22563 0.18896,5.83857l-0.00586,8.52349l11.53271,0.00322c-0.07324,-3.56602 0.10107,-7.46206 -0.00586,-10.94854c-0.15234,-4.95615 0.83643,-5.04287 5.57666,-4.98281c1.91016,0.02417 4.03857,-0.11074 5.96924,0.17007c0.61816,0.46289 1.45166,1.08765 1.48096,1.89316c0.06885,1.97915 0.55664,6.80801 -0.5376,8.31357c-0.87744,0.53276 -3.57422,0.35991 -4.7417,0.37983c-0.01758,1.02407 0.12891,3.09976 -0.08057,3.98979c-0.50977,2.1646 -3.58154,0.59502 -4.99365,1.4269c-0.49072,0.67852 -0.30322,3.34233 -0.27686,4.24248c0.05713,1.86724 3.81006,0.12319 4.87646,1.42866c0.73389,0.89854 0.4834,3.50449 0.46289,4.75239c1.05029,-0.01011 4.24365,-0.2748 4.96875,0.58535c0.29736,0.35317 0.45264,1.93081 0.43066,2.57842c-0.09668,2.82056 0.27979,6.17124 -0.28418,8.91108c-0.0498,0.24258 -0.55078,0.75088 -0.7251,0.93018c-0.06299,0.03545 -0.12451,0.07251 -0.1875,0.10649c-1.02832,0.55386 -8.91064,0.60571 -10.17627,0.21533c-0.51562,-0.15908 -1.00928,-0.41675 -1.28906,-0.89648c-1.37549,-2.36367 0.39697,-11.03027 -0.74268,-13.15488c-0.49951,-0.34893 -11.06982,-0.72319 -11.13721,0.36753c-0.21094,3.39565 -0.20947,7.18213 -0.11133,10.63271c0.15381,5.33306 -7.20557,2.53198 -10.56592,3.21431c-3.66943,0.12524 -2.32764,-6.70972 -2.49756,-8.79302c-0.4541,-5.57593 1.32422,-4.74316 5.31738,-4.69248c-0.00586,-1.021 -0.13916,-2.99517 0.02783,-3.91904c0.42627,-2.35444 3.79395,-0.76758 5.18848,-1.67197c0.37646,-0.58008 0.21387,-2.99473 0.22998,-3.77622c0.05127,-2.55776 -3.63721,-0.38379 -4.9585,-1.78477c-0.71191,-0.75396 -0.479,-3.57964 -0.47168,-4.70054c-1.30225,-0.07002 -3.54932,0.20669 -4.58203,-0.26118c-0.66064,-0.85986 -0.86719,-2.34097 -0.77344,-3.40327c0.23145,-2.61709 -1.03125,-6.44971 2.46973,-7.06025z" fill="#61af4e"/></g></svg></svg>